<svg id="fox-news-logo" xmlns="http://www.w3.org/2000/svg" viewBox="0 0 192 32"><defs><style>.cls-1{fill:#fff;fill-rule:evenodd;}</style></defs><title>fox-news-logo</title><path id="fox-news-logo-2" data-name="fox-news-logo" class="cls-1" d="M184.6,10.66l-0.48.16L184,10.35c-0.68-1.91-1.67-2.65-3.55-2.65a1.83,1.83,0,0,0-2,1.62c0,1,.54,1.21,2.84,1.83l1.36,0.38,0.89,0.26c2.15,0.62,4.18,1.2,6,2.9A8.94,8.94,0,0,1,192,21.38a10.3,10.3,0,0,1-2.58,6.94A11.4,11.4,0,0,1,180.69,32c-6.48,0-10.91-3.46-12.16-9.48l-0.1-.5,0.49-.11,7-1.58,0.5-.11,0.11,0.5C177,23,178.4,24,180.84,24c1.37,0,2.3-.62,2.3-1.54,0-1.28-.64-1.51-2.87-2.11-0.55-.15-1.16-0.31-1.84-0.52-6.22-1.88-8.75-4.63-8.75-9.48a10.07,10.07,0,0,1,3-7.41A11.64,11.64,0,0,1,180.91,0a10.51,10.51,0,0,1,6.5,2,11.52,11.52,0,0,1,3.89,5.79l0.16,0.49L191,8.48ZM154.42,32l-3.25-14.55L147.92,32h-8.67L132,0H140L143.7,15.6,146.81,0h8.33l3.72,15.57L162,0h8.33L163.09,32h-8.67ZM120,12h9v7h-9v4h11.25l-0.57,9H111V0h19.75l0.6,8H120v4ZM91,16.64V32H82V0H91.3L100,14.35V0h9V32H99.93ZM66.54,32l-4.62-8.31L57.42,32H47.5l9.37-16.7L47.84,0H57.95l3.9,6.81,3.78-6.74H75.71L66.93,15.26,76.68,32H66.54Zm-31,0A16.08,16.08,0,0,1,19.43,16.1a16.1,16.1,0,0,1,32.2,0A16.08,16.08,0,0,1,35.53,32Zm0-25.55A2.61,2.61,0,0,0,33,9.29V22.43a2.51,2.51,0,1,0,5,0V9.29A2.63,2.63,0,0,0,35.49,6.44ZM9,13h9v8H9L9,32H0V0H19.75l0.6,9H9v4Z" transform="translate(0 0)"/></svg>