<?xml version="1.0" encoding="utf-8"?>
<!-- Generator: Adobe Illustrator 20.1.0, SVG Export Plug-In . SVG Version: 6.00 Build 0)  -->
<!DOCTYPE svg PUBLIC "-//W3C//DTD SVG 1.1//EN" "http://www.w3.org/Graphics/SVG/1.1/DTD/svg11.dtd">
<svg version="1.1" id="fox-news-logo" xmlns="http://www.w3.org/2000/svg" xmlns:xlink="http://www.w3.org/1999/xlink" x="0px"
	 y="0px" viewBox="0 0 206 32" style="enable-background:new 0 0 206 32;" xml:space="preserve">
<title>fox-news-logo</title>
<path id="fox-news-logo-2" d="M198.6,10.7l-0.5,0.2l-0.1-0.5c-0.7-1.9-1.7-2.7-3.6-2.7c-1-0.1-1.9,0.6-2,1.6c0,1,0.5,1.2,2.8,1.8
	l1.4,0.4l0.9,0.3c2.1,0.6,4.2,1.2,6,2.9c1.7,1.8,2.6,4.2,2.5,6.7c0,2.6-0.9,5-2.6,6.9c-2.2,2.4-5.4,3.8-8.7,3.7
	c-6.5,0-10.9-3.5-12.2-9.5l-0.1-0.5l0.5-0.1l7-1.6l0.5-0.1l0.1,0.5c0.5,2.3,1.9,3.3,4.3,3.3c1.4,0,2.3-0.6,2.3-1.5
	c0-1.3-0.6-1.5-2.9-2.1c-0.6-0.1-1.2-0.3-1.8-0.5c-6.2-1.9-8.8-4.6-8.8-9.5c-0.1-2.8,1-5.5,3-7.4c2.3-2,5.2-3.1,8.2-2.9
	c2.3-0.1,4.6,0.6,6.5,2c1.9,1.5,3.2,3.5,3.9,5.8l0.2,0.5L205,8.5L198.6,10.7z M168.4,32l-3.2-14.5L161.9,32h-8.7L146,0h8l3.7,15.6
	L160.8,0h8.3l3.7,15.6L176,0h8.3l-7.2,32H168.4z M134,12h10v7h-10v4h11.2l1.4,9H125V0h18.8l1.6,8H134V12z M105,16.6V32h-9V0h9.3
	l8.7,14.4V0h9v32h-9.1L105,16.6z M66.5,32l-4.6-8.3L57.4,32h-9.9l9.4-16.7L47.8,0H58l3.9,6.8l3.8-6.7h10.1l-8.8,15.2L76.7,32H66.5z
	 M9,13h9v8H9v11H0V0h20.8l-1.4,9H9V13z"/>
<g>
	<polygon points="93,32 93,32 93,32 	"/>
	<path d="M86.6,16.1c0-4.3,3.2-7.7,7.4-8.2L94,0c-8.9,0-16.1,7.2-16.1,16.1C78,24.9,85.2,32,94,32l0-7.9
		C89.9,23.7,86.7,20.3,86.6,16.1z"/>
</g>
<g>
	<polygon points="35.5,32 35.5,32 35.5,32 	"/>
	<path d="M51.6,16.1C51.6,7.2,44.4,0,35.5,0c-8.9,0-16.1,7.2-16.1,16.1C19.5,24.9,26.7,32,35.5,32C44.4,32,51.5,24.9,51.6,16.1z
		 M35.5,22.7C35.5,22.7,35.5,22.7,35.5,22.7L35.5,22.7C35.5,22.7,35.5,22.7,35.5,22.7c-3.7,0-6.7-3-6.7-6.7c0-3.7,3-6.7,6.7-6.7
		c3.7,0,6.7,3,6.7,6.7C42.2,19.7,39.2,22.7,35.5,22.7z"/>
</g>
</svg>
